<svg width="20" height="16" viewBox="0 0 20 16" fill="none" xmlns="http://www.w3.org/2000/svg">
<rect width="20" height="16" fill="#E5E5E5"/>
<g clip-path="url(#clip0_0_1)">
<rect width="1440" height="1854" transform="translate(-282 -25)" fill="#1E232B"/>
<rect width="1440" height="66" transform="matrix(1 0 0 -1 -281 41)" fill="white" fill-opacity="0.05"/>
<rect x="-12" y="-10" width="571" height="36" rx="4" fill="black" fill-opacity="0.13"/>
<g clip-path="url(#clip1_0_1)">
<path d="M16 0L18 4H15L13 0H11L13 4H10L8 0H6L8 4H5L3 0H2C0.895 0 0.00999999 0.895 0.00999999 2L0 14C0 15.105 0.895 16 2 16H18C19.105 16 20 15.105 20 14V0H16Z" fill="white" fill-opacity="0.17"/>
</g>
</g>
<defs>
<clipPath id="clip0_0_1">
<rect width="1440" height="1854" fill="white" transform="translate(-282 -25)"/>
</clipPath>
<clipPath id="clip1_0_1">
<rect width="24" height="24" fill="white" transform="translate(-2 -4)"/>
</clipPath>
</defs>
</svg>
